# xmcd
#
# Track frame offsets:
#	150
#	13701
#	25492
#	38300
#	51641
#	66055
#	79062
#	92325
#	110621
#	125306
#
# Disc length: 1843 seconds
#
# Revision: 0
# Processed by: cddbd v1.5.1PL2 Copyright (c) Steve Scherf et al.
# Submitted via: dBpowerAMP V4.0
#
DISCID=7707310a
DTITLE=Alicia Villarreal - Orgullo de Mujer
DYEAR=1900
DGENRE=
TTITLE0=Me Gustas
TTITLE1=El Daño
TTITLE2=Que No Se Entere
TTITLE3=El Rollito
TTITLE4=Las Mujeres Olvidadas
TTITLE5=¿Que te Parece?
TTITLE6=Enredo
TTITLE7=Insensible A Ti (Me Pone A Mil)
TTITLE8=Ni Por Interesada
TTITLE9=Dos Mares
EXTD=
EXTT0=
EXTT1=
EXTT2=
EXTT3=
EXTT4=
EXTT5=
EXTT6=
EXTT7=
EXTT8=
EXTT9=
PLAYORDER=
